<svg xmlns="http://www.w3.org/2000/svg" viewBox="0 0 64 64" width="100%" height="100%">
  <defs>
    <radialGradient id="bg" cx="50%" cy="36%" r="75%">
      <stop offset="0%" stop-color="#261a10"/>
      <stop offset="100%" stop-color="#100c08"/>
    </radialGradient>
  </defs>
  <rect width="64" height="64" rx="13" fill="url(#bg)"/>
  <!-- thân -->
  <path d="M32 33 L32 55" stroke="#587f43" stroke-width="3.4" stroke-linecap="round"/>
  <!-- lá -->
  <path d="M31.6 50 C24.8 48.6 20.2 43.8 19 36.6 C26 38.6 30.4 43.6 31.6 50 Z" fill="#6b9a52"/>
  <path d="M32.4 53 C39.2 51.6 43.8 46.8 45 39.6 C38 41.6 33.6 46.6 32.4 53 Z" fill="#587f43"/>
  <!-- bông tulip: 3 cánh -->
  <path d="M17.5 10 C15 22 19.5 31 31 33.8 C24.5 28 22 19 23.5 12.5 C21.5 10.8 19.3 10 17.5 10 Z" fill="#cf4d6e"/>
  <path d="M46.5 10 C49 22 44.5 31 33 33.8 C39.5 28 42 19 40.5 12.5 C42.5 10.8 44.7 10 46.5 10 Z" fill="#b83f5f"/>
  <path d="M32 6.5 C26.8 11.5 24.4 17.5 24.4 23 C24.4 30 27.6 34 32 34 C36.4 34 39.6 30 39.6 23 C39.6 17.5 37.2 11.5 32 6.5 Z" fill="#ee7d97"/>
</svg>
